<svg width="1024" height="1024" viewBox="0 0 1024 1024" fill="none" xmlns="http://www.w3.org/2000/svg">
  <defs>
    <linearGradient id="bg" x1="168" y1="132" x2="858" y2="902" gradientUnits="userSpaceOnUse">
      <stop stop-color="#B98033"/>
      <stop offset="1" stop-color="#7A4B1F"/>
    </linearGradient>
    <linearGradient id="stone" x1="380" y1="290" x2="681" y2="690" gradientUnits="userSpaceOnUse">
      <stop stop-color="#F3EEE6"/>
      <stop offset="0.55" stop-color="#D8D0C2"/>
      <stop offset="1" stop-color="#A4947F"/>
    </linearGradient>
    <filter id="shadow" x="231" y="201" width="565" height="612" filterUnits="userSpaceOnUse" color-interpolation-filters="sRGB">
      <feFlood flood-opacity="0" result="BackgroundImageFix"/>
      <feColorMatrix in="SourceAlpha" type="matrix" values="0 0 0 0 0 0 0 0 0 0 0 0 0 0 0 0 0 0 127 0" result="hardAlpha"/>
      <feOffset dy="22"/>
      <feGaussianBlur stdDeviation="22"/>
      <feColorMatrix type="matrix" values="0 0 0 0 0.223529 0 0 0 0 0.133333 0 0 0 0 0.0588235 0 0 0 0.3 0"/>
      <feBlend mode="normal" in2="BackgroundImageFix" result="effect1_dropShadow_1_2"/>
      <feBlend mode="normal" in="SourceGraphic" in2="effect1_dropShadow_1_2" result="shape"/>
    </filter>
  </defs>

  <rect x="18" y="18" width="988" height="988" rx="220" fill="url(#bg)"/>
  <rect x="36" y="36" width="952" height="952" rx="202" stroke="rgba(255,245,230,0.16)" stroke-width="8"/>

  <g opacity="0.18">
    <path d="M175 776C296 700 434 669 578 687C706 703 807 751 874 817" stroke="#EDCAA0" stroke-width="34" stroke-linecap="round"/>
    <path d="M192 848C312 776 446 747 585 762C687 774 780 810 842 856" stroke="#6A3F19" stroke-width="22" stroke-linecap="round"/>
  </g>

  <g filter="url(#shadow)">
    <path d="M516 252C575 261 630 290 671 337C715 387 737 451 731 513C724 580 685 641 626 679C569 716 495 730 426 713C357 696 300 649 279 585C258 521 272 448 314 390C359 330 433 289 516 252Z" fill="url(#stone)"/>
    <path d="M447 319C492 293 553 289 605 307C567 314 532 331 504 358C459 402 435 461 439 519C442 565 462 609 493 645C447 634 406 608 380 569C349 523 342 463 361 409C376 369 405 338 447 319Z" fill="#FBF8F2" opacity="0.52"/>
    <path d="M464 409L539 340L626 438" stroke="#FBF8F2" stroke-width="18" stroke-linecap="round" stroke-linejoin="round" opacity="0.55"/>
    <circle cx="650" cy="336" r="26" fill="#FBF8F2" opacity="0.35"/>
    <path d="M376 592C429 636 505 660 575 653" stroke="#7E7162" stroke-width="18" stroke-linecap="round" opacity="0.38"/>
  </g>

  <circle cx="214" cy="298" r="18" fill="#F1D0A1" opacity="0.75"/>
  <circle cx="765" cy="761" r="15" fill="#F1D0A1" opacity="0.42"/>
</svg>
